<?xml version="1.0" encoding="UTF-8"?>
<svg width="2430px" height="675px" viewBox="0 0 2430 675" version="1.1" xmlns="http://www.w3.org/2000/svg" xmlns:xlink="http://www.w3.org/1999/xlink">
    <!-- Generator: Sketch 62 (91390) - https://sketch.com -->
    <title>Group 2</title>
    <desc>Created with Sketch.</desc>
    <g id="Page-1" stroke="none" stroke-width="1" fill="none" fill-rule="evenodd">
        <g id="Group-2" transform="translate(-188.000000, -99.000000)">
            <g id="Group">
                <g id="logo">
                    <rect id="Rectangle" x="0" y="0" width="960" height="960"></rect>
                    <g id="cube" transform="translate(189.000000, 100.000000)" fill-rule="nonzero">
                        <path d="M0.00875,151 L302.00875,301.8 L302.00875,673 L0.00875,522.2 L0.00875,151 Z M35,210 L35,496.577778 L268,613 L268,326.422222 L35,210 Z" id="Combined-Shape" stroke="#011C32" fill="#011C32"></path>
                        <polygon id="Path" stroke="#011C32" fill="#002E3B" points="302.00875 673 604.00875 522.2 604.00875 151 302.00875 301.8"></polygon>
                        <polygon id="right-white" fill="#011C32" points="338 613 572 496.577778 572 210 338 326.422222"></polygon>
                        <path d="M289.912596,0 L603.00875,151 L301.50875,302 L0.00875,151 L289.912596,0 Z M293.038462,35 L69,151.5 L302,268 L535,151.5 L293.038462,35 Z" id="Combined-Shape" stroke="#011C32" fill="#013D4F"></path>
                    </g>
                    <g id="graph" transform="translate(477.000000, 365.000000)" fill-rule="nonzero">
                        <g id="dots" transform="translate(148.907292, 193.263223) rotate(-26.000000) translate(-148.907292, -193.263223) translate(22.907292, 113.763223)" fill="#FCFCFC">
                            <ellipse id="Oval" cx="41.9501858" cy="85.7031191" rx="10.3081761" ry="9.8245614"></ellipse>
                            <ellipse id="Oval" cx="61.8519336" cy="36.4199119" rx="10.3081761" ry="9.8245614"></ellipse>
                            <ellipse id="Oval" cx="18.5687347" cy="142.228893" rx="17.8050314" ry="15.9064327"></ellipse>
                            <ellipse id="Oval" cx="93.1110519" cy="83.490876" rx="10.3081761" ry="9.8245614"></ellipse>
                            <ellipse id="Oval" cx="178.431454" cy="9.94299244" rx="10.3081761" ry="9.8245614"></ellipse>
                            <ellipse id="Oval" cx="199.708321" cy="137.364585" rx="14.0566038" ry="12.6315789"></ellipse>
                            <ellipse id="Oval" cx="234.349851" cy="74.888774" rx="17.336478" ry="15.9064327"></ellipse>
                            <ellipse id="Oval" cx="147.800677" cy="72.2592067" rx="17.336478" ry="15.9064327"></ellipse>
                            <ellipse id="Oval" cx="75.9801693" cy="138.050061" rx="10.3081761" ry="9.8245614"></ellipse>
                            <ellipse id="Oval" cx="159.676297" cy="137.054867" rx="10.3081761" ry="9.8245614"></ellipse>
                            <ellipse id="Oval" cx="117.390801" cy="137.384807" rx="17.8050314" ry="15.9064327"></ellipse>
                        </g>
                        <g id="rects" transform="translate(54.000000, 0.000000)" fill="#FFFFFF">
                            <path d="M219.603808,68.2733658 L197.996486,68.2733658 C196.005011,68.2733658 194.395265,69.8787812 194.395265,71.864899 L194.395265,81.443518 L158.383062,129.333021 C158.383062,127.343312 156.773317,125.737897 154.781842,125.737897 L133.17452,125.737897 C131.183045,125.737897 129.573299,127.343312 129.573299,129.32943 L129.573299,134.799335 L100.763537,123.306429 L100.763537,114.963297 C100.763537,112.977179 99.1537912,111.371764 97.1623163,111.371764 L75.5549943,111.371764 C73.5635194,111.371764 71.9537739,112.977179 71.9537739,114.963297 L71.9537739,118.159762 L56.6521887,105.672001 L79.473122,77.2234665 C81.5294188,78.3476164 83.8522059,79.0479654 86.3586553,79.0479654 C91.1050637,79.0479654 95.2860805,76.7206519 97.9113701,73.1794002 L129.735354,95.3966244 C129.674134,95.9317629 129.573299,96.4561267 129.573299,97.0056313 C129.573299,104.928553 136.033889,111.371764 143.978181,111.371764 C151.922473,111.371764 158.383062,104.928553 158.383062,97.0056313 C158.383062,95.1883155 158.008535,93.4679711 157.389125,91.8661473 L157.612401,92.0421324 L194.740983,44.914034 C196.790077,46.0310009 199.10206,46.7241668 201.597706,46.7241668 C209.541998,46.7241668 216.002587,40.2809562 216.002587,32.358034 C216.002587,24.4351118 209.541998,17.9919013 201.597706,17.9919013 C193.653414,17.9919013 187.192825,24.4351118 187.192825,32.358034 C187.192825,35.1737961 188.039112,37.7848407 189.447189,40.0044082 L153.179299,86.044272 C150.676451,83.9504082 147.492972,82.6394986 143.978181,82.6394986 C139.231772,82.6394986 135.050755,84.9668121 132.425466,88.5080638 L100.601482,66.2908395 C100.662702,65.7557011 100.763537,65.2313372 100.763537,64.6818327 C100.763537,56.7589105 94.3029474,50.3156999 86.3586553,50.3156999 C78.4143632,50.3156999 71.9537739,56.7589105 71.9537739,64.6818327 C71.9537739,67.4868201 72.7964595,70.0870901 74.193733,72.2994745 L51.0738984,101.121528 L39.5427909,91.7117114 L39.5427909,71.864899 C39.5427909,69.8787812 37.9330454,68.2733658 35.9415705,68.2733658 L14.3342485,68.2733658 C12.3427737,68.2733658 10.7330282,69.8787812 10.7330282,71.864899 L10.7330282,93.4140981 C10.7330282,95.400216 12.3427737,97.0056313 14.3342485,97.0056313 L34.6559349,97.0056313 L46.5759742,106.731503 L33.5107468,123.019106 C32.0090379,122.487559 30.4208998,122.146364 28.7391299,122.146364 C20.7948378,122.146364 14.3342485,128.589574 14.3342485,136.512496 C14.3342485,144.435418 20.7948378,150.878629 28.7391299,150.878629 C36.6834219,150.878629 43.1440112,144.435418 43.1440112,136.512496 C43.1440112,132.874273 41.7395353,129.58802 39.4995762,127.055989 L52.1542645,111.281976 L71.9537739,127.440283 L71.9537739,136.512496 C71.9537739,138.498614 73.5635194,140.104029 75.5549943,140.104029 L97.1623163,140.104029 C99.1537912,140.104029 100.763537,138.498614 100.763537,136.512496 L100.763537,131.042591 L129.573299,142.535497 L129.573299,150.878629 C129.573299,152.864747 131.183045,154.470162 133.17452,154.470162 L154.781842,154.470162 C156.773317,154.470162 158.383062,152.864747 158.383062,150.878629 L158.383062,141.30001 L194.395265,93.4140981 C194.395265,95.400216 196.005011,97.0056313 197.996486,97.0056313 L219.603808,97.0056313 C221.595283,97.0056313 223.205028,95.400216 223.205028,93.4140981 L223.205028,71.864899 C223.205028,69.8787812 221.595283,68.2733658 219.603808,68.2733658 Z M201.209028,25.4701622 C205.077048,25.4701622 208.229028,28.6145372 208.229028,32.4810317 C208.229028,36.3440209 205.077048,39.4919013 201.209028,39.4919013 C197.337498,39.4919013 194.189028,36.3440209 194.189028,32.4810317 C194.189028,28.6145372 197.337498,25.4701622 201.209028,25.4701622 Z M144.113028,89.9701622 C147.981048,89.9701622 151.133028,93.1145372 151.133028,96.9810317 C151.133028,100.844021 147.981048,103.991901 144.113028,103.991901 C140.241498,103.991901 137.093028,100.844021 137.093028,96.9810317 C137.093028,93.1145372 140.241498,89.9701622 144.113028,89.9701622 Z M86.0810282,57.2527709 C89.9490482,57.2527709 93.1010282,60.3971459 93.1010282,64.2636404 C93.1010282,68.1266296 89.9490482,71.27451 86.0810282,71.27451 C82.2094982,71.27451 79.0610282,68.1266296 79.0610282,64.2636404 C79.0610282,60.3971459 82.2094982,57.2527709 86.0810282,57.2527709 Z M32.2610282,89.9701622 L18.2210282,89.9701622 L18.2210282,75.9484231 L32.2610282,75.9484231 L32.2610282,89.9701622 Z M28.9850282,143.252771 C25.1170082,143.252771 21.9650282,140.10489 21.9650282,136.241901 C21.9650282,132.375407 25.1170082,129.231032 28.9850282,129.231032 C32.8530482,129.231032 36.0050282,132.375407 36.0050282,136.241901 C36.0050282,140.10489 32.8530482,143.252771 28.9850282,143.252771 Z M93.1010282,132.970162 L79.0610282,132.970162 L79.0610282,118.948423 L93.1010282,118.948423 L93.1010282,132.970162 Z M151.133028,146.991901 L137.093028,146.991901 L137.093028,132.970162 L151.133028,132.970162 L151.133028,146.991901 Z M215.717028,89.9701622 L201.677028,89.9701622 L201.677028,75.9484231 L215.717028,75.9484231 L215.717028,89.9701622 Z" id="Shape" transform="translate(116.969028, 86.231032) rotate(-10.000000) translate(-116.969028, -86.231032) "></path>
                        </g>
                    </g>
                    <g id="documents" transform="translate(235.000000, 372.000000)" fill="#013D4F">
                        <polygon id="Rectangle" transform="translate(108.537642, 138.873835) rotate(17.000000) translate(-108.537642, -138.873835) " points="3 113.860931 208.520221 145.716947 214.075284 163.886738 8.97199283 134.265933"></polygon>
                        <polygon id="Rectangle" transform="translate(110.537642, 97.873835) rotate(17.000000) translate(-110.537642, -97.873835) " points="5 72.8609313 210.520221 104.716947 216.075284 122.886738 10.9719928 93.2659327"></polygon>
                        <polygon id="Rectangle" transform="translate(108.537642, 181.873835) rotate(17.000000) translate(-108.537642, -181.873835) " points="3 156.860931 208.520221 188.716947 214.075284 206.886738 8.97199283 177.265933"></polygon>
                        <polygon id="Rectangle" transform="translate(56.962279, 27.479294) rotate(17.000000) translate(-56.962279, -27.479294) " points="10.6684001 13 97.4493838 22.9654842 103.256158 41.9585872 16.6403929 33.4050014"></polygon>
                        <polygon id="Rectangle" transform="translate(80.146433, 211.938295) rotate(17.000000) translate(-80.146433, -211.938295) " points="7 192.860931 147.445431 211.889563 153.292865 231.015659 12.9719928 213.265933"></polygon>
                    </g>
                    <g id="magic" transform="translate(492.000000, 248.500000) rotate(-17.000000) translate(-492.000000, -248.500000) translate(423.000000, 180.000000)">
                        <path d="M6.09938333,42.5496556 C-2.03312778,34.4172167 -2.03312778,21.2318222 6.09938333,13.0993833 C14.2318222,4.96687222 27.4172167,4.96687222 35.5496556,13.0993833 L123.900833,101.450056 C132.033056,109.583 132.033056,122.767889 123.900833,130.900833 C115.767889,139.033056 102.583,139.033056 94.4500556,130.900833 L6.09938333,42.5496556 Z" id="Path" stroke="#013D4F" stroke-width="12"></path>
                        <line x1="22" y1="58" x2="51" y2="29" id="Path" stroke="#013D4F" stroke-width="12" stroke-linecap="round"></line>
                        <path d="M95.2367559,2.22066307 C96.4049211,-0.740221024 100.595079,-0.740221024 101.762519,2.22066307 L104.885365,10.1383298 C105.242345,11.0423035 105.957755,11.757892 106.861814,12.1144212 L114.779216,15.2370881 C117.740261,16.4048441 117.740261,20.5951468 114.779216,21.7629029 L106.861814,24.885642 C105.957755,25.2421712 105.242345,25.9576875 104.885365,26.8616611 L101.763244,34.7793279 C100.595079,37.740212 96.4049211,37.740212 95.2367559,34.7794002 L92.1146349,26.8616611 C91.7576552,25.9576875 91.0422448,25.2421712 90.1381865,24.885642 L82.2207836,21.7629029 C79.2597388,20.5951468 79.2597388,16.4048441 82.2207836,15.2370881 L90.1381865,12.1144212 C91.0422448,11.757892 91.7576552,11.0423035 92.1146349,10.1383298 L95.2367559,2.22066307 Z" id="Path" stroke="#DA4167" stroke-width="8"></path>
                        <path d="M123.232929,52.2235019 C124.4019,49.2588327 128.598282,49.2588327 129.767253,52.2235019 L130.907163,55.1141231 C131.264611,56.0192744 131.98096,56.7357952 132.886205,57.0927165 L135.776303,58.2327512 C138.741232,59.402101 138.741232,63.5981523 135.776303,64.7671403 L132.886205,65.9071749 C131.98096,66.2640238 131.264611,66.9806171 130.907163,67.8854065 L129.767253,70.7763896 C128.598282,73.7412035 124.4019,73.7412035 123.232929,70.7763896 L122.093018,67.8854065 C121.73557,66.9806171 121.019221,66.2640238 120.113977,65.9071749 L117.223152,64.7671403 C114.258949,63.5981523 114.258949,59.402101 117.223152,58.2327512 L120.113977,57.0927165 C121.019221,56.7357952 121.73557,56.0192744 122.093018,55.1141231 L123.232929,52.2235019 Z" id="Path" stroke="#013D4F" stroke-width="8"></path>
                        <path d="M15.2328377,96.2236349 C16.4020867,93.2587884 20.5979133,93.2587884 21.7671623,96.2236349 L22.9072054,99.113926 C23.2642136,100.019449 23.9807,100.73605 24.8858618,101.092903 L27.7764364,102.23295 C30.7411879,103.401951 30.7411879,107.598049 27.7764364,108.76705 L24.8858618,109.907097 C23.9807,110.26395 23.2642136,110.980551 22.9072054,111.886074 L21.7671623,114.776365 C20.5979133,117.741212 16.4020867,117.741212 15.2328377,114.776365 L14.0927946,111.886074 C13.7357864,110.980551 13.0193,110.26395 12.1141382,109.907097 L9.22356364,108.76705 C6.25881212,107.598049 6.25881212,103.401951 9.22356364,102.23295 L12.1141382,101.092903 C13.0193,100.73605 13.7357864,100.019449 14.0927946,99.113926 L15.2328377,96.2236349 Z" id="Path" stroke="#011C32" stroke-width="8"></path>
                    </g>
                </g>
            </g>
            <g id="horizontal" transform="translate(948.000000, 251.000000)" fill="#011C32" font-family="ArialRoundedMTBold, Arial Rounded MT Bold" font-size="320" font-weight="normal">
                <text id="UNIT-Mesh">
                    <tspan x="0.078125" y="303">UNIT Mesh</tspan>
                </text>
            </g>
        </g>
    </g>
</svg>