<?xml version="1.0" encoding="UTF-8"?>
<svg width="960px" height="960px" viewBox="0 0 960 960" version="1.1" xmlns="http://www.w3.org/2000/svg" xmlns:xlink="http://www.w3.org/1999/xlink">
    <!-- Generator: Sketch 62 (91390) - https://sketch.com -->
    <title>Group</title>
    <desc>Created with Sketch.</desc>
    <g id="Page-1" stroke="none" stroke-width="1" fill="none" fill-rule="evenodd">
        <g id="Group-2">
            <g id="Group">
                <g id="logo">
                    <rect id="Rectangle" fill="#FFFFFF" x="0" y="0" width="960" height="960"></rect>
                    <g id="cube" transform="translate(189.000000, 100.000000)" fill-rule="nonzero">
                        <path d="M0.00875,151 L302.00875,301.8 L302.00875,673 L0.00875,522.2 L0.00875,151 Z M35,210 L35,496.577778 L268,613 L268,326.422222 L35,210 Z" id="Combined-Shape" stroke="#011C32" fill="#011C32"></path>
                        <polygon id="Path" stroke="#011C32" fill="#002E3B" points="302.00875 673 604.00875 522.2 604.00875 151 302.00875 301.8"></polygon>
                        <polygon id="right-white" fill="#011C32" points="338 613 572 496.577778 572 210 338 326.422222"></polygon>
                        <path d="M289.912596,0 L603.00875,151 L301.50875,302 L0.00875,151 L289.912596,0 Z M293.038462,35 L69,151.5 L302,268 L535,151.5 L293.038462,35 Z" id="Combined-Shape" stroke="#011C32" fill="#013D4F"></path>
                    </g>
                    <g id="graph" transform="translate(477.000000, 365.000000)" fill-rule="nonzero">
                        <g id="dots" transform="translate(148.907292, 193.263223) rotate(-26.000000) translate(-148.907292, -193.263223) translate(22.907292, 113.763223)" fill="#FCFCFC">
                            <ellipse id="Oval" cx="41.9501858" cy="85.7031191" rx="10.3081761" ry="9.8245614"></ellipse>
                            <ellipse id="Oval" cx="61.8519336" cy="36.4199119" rx="10.3081761" ry="9.8245614"></ellipse>
                            <ellipse id="Oval" cx="18.5687347" cy="142.228893" rx="17.8050314" ry="15.9064327"></ellipse>
                            <ellipse id="Oval" cx="93.1110519" cy="83.490876" rx="10.3081761" ry="9.8245614"></ellipse>
                            <ellipse id="Oval" cx="178.431454" cy="9.94299244" rx="10.3081761" ry="9.8245614"></ellipse>
                            <ellipse id="Oval" cx="199.708321" cy="137.364585" rx="14.0566038" ry="12.6315789"></ellipse>
                            <ellipse id="Oval" cx="234.349851" cy="74.888774" rx="17.336478" ry="15.9064327"></ellipse>
                            <ellipse id="Oval" cx="147.800677" cy="72.2592067" rx="17.336478" ry="15.9064327"></ellipse>
                            <ellipse id="Oval" cx="75.9801693" cy="138.050061" rx="10.3081761" ry="9.8245614"></ellipse>
                            <ellipse id="Oval" cx="159.676297" cy="137.054867" rx="10.3081761" ry="9.8245614"></ellipse>
                            <ellipse id="Oval" cx="117.390801" cy="137.384807" rx="17.8050314" ry="15.9064327"></ellipse>
                        </g>
                        <g id="rects" transform="translate(54.000000, 0.000000)" fill="#FFFFFF">
                            <path d="M219.603808,68.2733658 L197.996486,68.2733658 C196.005011,68.2733658 194.395265,69.8787812 194.395265,71.864899 L194.395265,81.443518 L158.383062,129.333021 C158.383062,127.343312 156.773317,125.737897 154.781842,125.737897 L133.17452,125.737897 C131.183045,125.737897 129.573299,127.343312 129.573299,129.32943 L129.573299,134.799335 L100.763537,123.306429 L100.763537,114.963297 C100.763537,112.977179 99.1537912,111.371764 97.1623163,111.371764 L75.5549943,111.371764 C73.5635194,111.371764 71.9537739,112.977179 71.9537739,114.963297 L71.9537739,118.159762 L56.6521887,105.672001 L79.473122,77.2234665 C81.5294188,78.3476164 83.8522059,79.0479654 86.3586553,79.0479654 C91.1050637,79.0479654 95.2860805,76.7206519 97.9113701,73.1794002 L129.735354,95.3966244 C129.674134,95.9317629 129.573299,96.4561267 129.573299,97.0056313 C129.573299,104.928553 136.033889,111.371764 143.978181,111.371764 C151.922473,111.371764 158.383062,104.928553 158.383062,97.0056313 C158.383062,95.1883155 158.008535,93.4679711 157.389125,91.8661473 L157.612401,92.0421324 L194.740983,44.914034 C196.790077,46.0310009 199.10206,46.7241668 201.597706,46.7241668 C209.541998,46.7241668 216.002587,40.2809562 216.002587,32.358034 C216.002587,24.4351118 209.541998,17.9919013 201.597706,17.9919013 C193.653414,17.9919013 187.192825,24.4351118 187.192825,32.358034 C187.192825,35.1737961 188.039112,37.7848407 189.447189,40.0044082 L153.179299,86.044272 C150.676451,83.9504082 147.492972,82.6394986 143.978181,82.6394986 C139.231772,82.6394986 135.050755,84.9668121 132.425466,88.5080638 L100.601482,66.2908395 C100.662702,65.7557011 100.763537,65.2313372 100.763537,64.6818327 C100.763537,56.7589105 94.3029474,50.3156999 86.3586553,50.3156999 C78.4143632,50.3156999 71.9537739,56.7589105 71.9537739,64.6818327 C71.9537739,67.4868201 72.7964595,70.0870901 74.193733,72.2994745 L51.0738984,101.121528 L39.5427909,91.7117114 L39.5427909,71.864899 C39.5427909,69.8787812 37.9330454,68.2733658 35.9415705,68.2733658 L14.3342485,68.2733658 C12.3427737,68.2733658 10.7330282,69.8787812 10.7330282,71.864899 L10.7330282,93.4140981 C10.7330282,95.400216 12.3427737,97.0056313 14.3342485,97.0056313 L34.6559349,97.0056313 L46.5759742,106.731503 L33.5107468,123.019106 C32.0090379,122.487559 30.4208998,122.146364 28.7391299,122.146364 C20.7948378,122.146364 14.3342485,128.589574 14.3342485,136.512496 C14.3342485,144.435418 20.7948378,150.878629 28.7391299,150.878629 C36.6834219,150.878629 43.1440112,144.435418 43.1440112,136.512496 C43.1440112,132.874273 41.7395353,129.58802 39.4995762,127.055989 L52.1542645,111.281976 L71.9537739,127.440283 L71.9537739,136.512496 C71.9537739,138.498614 73.5635194,140.104029 75.5549943,140.104029 L97.1623163,140.104029 C99.1537912,140.104029 100.763537,138.498614 100.763537,136.512496 L100.763537,131.042591 L129.573299,142.535497 L129.573299,150.878629 C129.573299,152.864747 131.183045,154.470162 133.17452,154.470162 L154.781842,154.470162 C156.773317,154.470162 158.383062,152.864747 158.383062,150.878629 L158.383062,141.30001 L194.395265,93.4140981 C194.395265,95.400216 196.005011,97.0056313 197.996486,97.0056313 L219.603808,97.0056313 C221.595283,97.0056313 223.205028,95.400216 223.205028,93.4140981 L223.205028,71.864899 C223.205028,69.8787812 221.595283,68.2733658 219.603808,68.2733658 Z M201.209028,25.4701622 C205.077048,25.4701622 208.229028,28.6145372 208.229028,32.4810317 C208.229028,36.3440209 205.077048,39.4919013 201.209028,39.4919013 C197.337498,39.4919013 194.189028,36.3440209 194.189028,32.4810317 C194.189028,28.6145372 197.337498,25.4701622 201.209028,25.4701622 Z M144.113028,89.9701622 C147.981048,89.9701622 151.133028,93.1145372 151.133028,96.9810317 C151.133028,100.844021 147.981048,103.991901 144.113028,103.991901 C140.241498,103.991901 137.093028,100.844021 137.093028,96.9810317 C137.093028,93.1145372 140.241498,89.9701622 144.113028,89.9701622 Z M86.0810282,57.2527709 C89.9490482,57.2527709 93.1010282,60.3971459 93.1010282,64.2636404 C93.1010282,68.1266296 89.9490482,71.27451 86.0810282,71.27451 C82.2094982,71.27451 79.0610282,68.1266296 79.0610282,64.2636404 C79.0610282,60.3971459 82.2094982,57.2527709 86.0810282,57.2527709 Z M32.2610282,89.9701622 L18.2210282,89.9701622 L18.2210282,75.9484231 L32.2610282,75.9484231 L32.2610282,89.9701622 Z M28.9850282,143.252771 C25.1170082,143.252771 21.9650282,140.10489 21.9650282,136.241901 C21.9650282,132.375407 25.1170082,129.231032 28.9850282,129.231032 C32.8530482,129.231032 36.0050282,132.375407 36.0050282,136.241901 C36.0050282,140.10489 32.8530482,143.252771 28.9850282,143.252771 Z M93.1010282,132.970162 L79.0610282,132.970162 L79.0610282,118.948423 L93.1010282,118.948423 L93.1010282,132.970162 Z M151.133028,146.991901 L137.093028,146.991901 L137.093028,132.970162 L151.133028,132.970162 L151.133028,146.991901 Z M215.717028,89.9701622 L201.677028,89.9701622 L201.677028,75.9484231 L215.717028,75.9484231 L215.717028,89.9701622 Z" id="Shape" transform="translate(116.969028, 86.231032) rotate(-10.000000) translate(-116.969028, -86.231032) "></path>
                        </g>
                    </g>
                    <g id="documents" transform="translate(235.000000, 372.000000)" fill="#013D4F">
                        <polygon id="Rectangle" transform="translate(108.537642, 138.873835) rotate(17.000000) translate(-108.537642, -138.873835) " points="3 113.860931 208.520221 145.716947 214.075284 163.886738 8.97199283 134.265933"></polygon>
                        <polygon id="Rectangle" transform="translate(110.537642, 97.873835) rotate(17.000000) translate(-110.537642, -97.873835) " points="5 72.8609313 210.520221 104.716947 216.075284 122.886738 10.9719928 93.2659327"></polygon>
                        <polygon id="Rectangle" transform="translate(108.537642, 181.873835) rotate(17.000000) translate(-108.537642, -181.873835) " points="3 156.860931 208.520221 188.716947 214.075284 206.886738 8.97199283 177.265933"></polygon>
                        <polygon id="Rectangle" transform="translate(56.962279, 27.479294) rotate(17.000000) translate(-56.962279, -27.479294) " points="10.6684001 13 97.4493838 22.9654842 103.256158 41.9585872 16.6403929 33.4050014"></polygon>
                        <polygon id="Rectangle" transform="translate(80.146433, 211.938295) rotate(17.000000) translate(-80.146433, -211.938295) " points="7 192.860931 147.445431 211.889563 153.292865 231.015659 12.9719928 213.265933"></polygon>
                    </g>
                    <g id="magic" transform="translate(489.356461, 246.693982) rotate(-17.000000) translate(-489.356461, -246.693982) translate(393.356461, 191.693982)" fill="#CC850A" fill-rule="nonzero">
                        <path d="M51.5007995,90.106052 C52.8661328,90.9593853 54.3167995,91.2367186 55.8527995,90.938052 C57.3887995,90.6393853 58.6901328,89.914052 59.7567995,88.762052 C60.8234661,87.610052 61.3567995,86.1807186 61.3567995,84.474052 C61.3567995,82.0847186 60.2901328,80.2073853 58.1567995,78.842052 L58.1567995,78.842052 L19.6337995,55.752052 L58.1567995,32.890052 C60.2080815,31.6592827 61.2731703,29.8367975 61.3520657,27.4225963 L61.3567995,27.130052 C61.3567995,24.6553853 60.2901328,22.842052 58.1567995,21.690052 C56.0234661,20.538052 53.8047995,20.5593853 51.5007995,21.754052 L51.5007995,21.754052 L4.26879946,50.170052 C1.96479946,51.7913853 0.812799457,53.7113853 0.812799457,55.930052 C0.812799457,58.4047186 1.96479946,60.3673853 4.26879946,61.818052 L4.26879946,61.818052 L51.5007995,90.106052 Z M77.2287995,109.946052 C78.4234661,109.946052 79.5967995,109.647385 80.7487995,109.050052 C81.9007995,108.452719 82.7327995,107.471385 83.2447995,106.106052 L83.2447995,106.106052 L121.772799,9.72205195 C122.711466,7.24738529 122.519466,5.09271862 121.196799,3.25805195 C119.874133,1.42338529 118.103466,0.506051955 115.884799,0.506051955 C114.604799,0.506051955 113.410133,0.847385288 112.300799,1.53005195 C111.191466,2.21271862 110.380799,3.15138529 109.868799,4.34605195 L109.868799,4.34605195 L71.3407995,100.730052 C70.4021328,103.034052 70.5514661,105.146052 71.7887995,107.066052 C73.0261328,108.986052 74.8394661,109.946052 77.2287995,109.946052 Z M136.364799,90.938052 C137.900799,91.2367186 139.351466,90.9593853 140.716799,90.106052 L140.716799,90.106052 L187.948799,61.818052 C190.252799,60.3673853 191.404799,58.4047186 191.404799,55.930052 C191.404799,53.7113853 190.252799,51.7913853 187.948799,50.170052 L187.948799,50.170052 L140.716799,21.754052 C138.412799,20.5593853 136.194133,20.538052 134.060799,21.690052 C131.927466,22.842052 130.860799,24.6553853 130.860799,27.130052 C130.860799,29.690052 131.927466,31.610052 134.060799,32.890052 L134.060799,32.890052 L172.582799,55.752052 L134.060799,78.842052 C132.012799,80.152772 130.947839,81.9353512 130.865919,84.1897896 L130.860799,84.474052 C130.860799,86.1807186 131.394133,87.610052 132.460799,88.762052 C133.527466,89.914052 134.828799,90.6393853 136.364799,90.938052 Z" id="&lt;/&gt;"></path>
                    </g>
                </g>
                <g id="vertical" transform="translate(205.000000, 649.000000)" fill="#013D4F" font-family="ArialRoundedMTBold, Arial Rounded MT Bold" font-size="72" font-weight="normal">
                    <text id="UNIT" transform="translate(98.500000, 85.500000) rotate(26.000000) translate(-98.500000, -85.500000) ">
                        <tspan x="10.0292969" y="112">UNIT</tspan>
                    </text>
                    <text id="MESH" transform="translate(470.500000, 85.500000) rotate(-27.000000) translate(-470.500000, -85.500000) ">
                        <tspan x="365.136719" y="112">MESH</tspan>
                    </text>
                </g>
            </g>
        </g>
    </g>
</svg>