<svg version="1.1" fill-rule="evenodd" fill="none" stroke="none" stroke-linecap="square" stroke-miterlimit="10" overflow="hidden" preserveAspectRatio="none" xmlns="http://www.w3.org/2000/svg" xmlns:xlink="http://www.w3.org/1999/xlink" style="position: absolute; top: 0px; left: 0px;" width="1500px" height="466px" viewBox="0 0 571500 177546"><rect fill="#1a73e8" fill-opacity="0" width="100%" height="100%"></rect><g transform="translate(128778 762) scale(0.8592592592592593)"><defs cursor="default"></defs><g id="editor-g29ca6216c02_0_181"><path fill="#fff" fill-opacity="1" d="M 0 0 L 365760 0 365760 205740 0 205740 Z"></path><g id="editor-g29ca6216c02_0_181-bg"><g><g><path fill="#FFFFFF" fill-opacity="1" d="M 0 0 L 365760 0 365760 205740 0 205740 Z"></path></g></g></g><g id="editor-gc91806cdd8_0_7"><g><g><path d="M 14740.9675 190388.705 L 172252.9675 190388.705 172252.9675 197432.705 14740.9675 197432.705 Z"></path></g><g><g direction="ltr"><g transform="matrix(381,0,0,381,14740.9675,193622.705)"><g pointer-events="none"><g id="editor-gc91806cdd8_0_7-paragraph-0"><g><g class="sketchy-text-background" visibility="visible"></g><g></g></g></g></g></g></g></g></g></g><g id="editor-g29ca6216c02_0_182"><g><g></g><g><path fill="#6B9E78" fill-opacity="1" d="M 207847 98957 L 340363 98957 340363 137777 207847 137777 Z"></path></g><g><g direction="ltr" style="opacity: 1;"><g transform="matrix(381,0,0,381,211504,102614)"><g pointer-events="none"><g id="editor-g29ca6216c02_0_182-paragraph-0"><g><g class="sketchy-text-background" visibility="visible"></g><g><g></g></g><g class="sketchy-text-content" visibility="visible"><g class="sketchy-text-content-text" transform="translate(0 12.799999999999999)"><text style="font-family:docs-Inter;font-size:13.333333333333332px;fill:#FFFFFF;white-space:pre;" text-rendering="geometricPrecision" x="124.11708798746426">Components</text></g></g></g></g></g><rect style="opacity: 0;" x="204.31088152197538" y="0.327966965912708" width="1.375796178343949" height="15.999999999999998" fill="#FFFFFF" transform="" shape-rendering="crispEdges" class=""></rect><rect style="opacity: 0;"></rect></g><g><path d="M 258792.61052322388 102614 L 289417.3894767761 102614 289417.3894767761 108710 258792.61052322388 108710 Z" pointer-events="visiblePainted" fill="#000000" stroke="#000000" opacity="0"></path></g><g transform="matrix(381,0,0,381,211504,102614)"></g></g></g></g></g><g id="editor-g29ca6216c02_0_183"><g><g></g><g><path d="M 14760 14628 L 351000 14628 351000 37536 14760 37536 Z"></path></g><g><path fill="#000" fill-opacity="0" stroke="#000" stroke-opacity="0" stroke-width="4434.051724137931" stroke-linecap="round" stroke-linejoin="round" stroke-miterlimit="10" pointer-events="visiblePainted" d="M 14760 14628 L 351000 14628 351000 37536 14760 37536 Z"></path></g><g><g direction="ltr" style="opacity: 1;"><g transform="matrix(381,0,0,381,14760,14628)"><g pointer-events="none"><g id="editor-g29ca6216c02_0_183-paragraph-0"><g><g class="sketchy-text-background" visibility="visible"></g><g><g></g></g><g class="sketchy-text-content" visibility="visible"><g class="sketchy-text-content-text" transform="translate(0 35.839999999999996)"><text style="font-family:'docs-Noto Serif SC';font-size:37.33333333333333px;fill:#000000;font-weight:900;white-space:pre;" text-rendering="geometricPrecision">Unit</text><text style="font-family:'docs-Noto Serif SC';font-size:37.33333333333333px;fill:#000000;font-weight:900;white-space:pre;" text-rendering="geometricPrecision" x="93.5573320388794">Mesh</text></g></g></g></g></g><rect style="opacity: 0;" x="196.52098901650035" y="0.12859220622900125" width="1.375796178343949" height="44.79999999999999" fill="#000000" transform="" shape-rendering="crispEdges" class=""></rect><rect style="opacity: 0;"></rect></g><g><path d="M 14760 14628 L 89663.58385562897 14628 89663.58385562897 31696.799999999996 14760 31696.799999999996 Z" pointer-events="visiblePainted" fill="#000000" stroke="#000000" opacity="0"></path></g><g transform="matrix(381,0,0,381,14760,14628)"></g></g></g></g></g><g id="editor-g29ca6216c02_0_184"><g><g><path d="M 338898.3125 186528.6719 L 360846.3125 186528.6719 360846.3125 202272.6719 338898.3125 202272.6719 Z"></path></g><g><path fill="#000" fill-opacity="0" stroke="#000" stroke-opacity="0" stroke-width="4434.051724137931" stroke-linecap="round" stroke-linejoin="round" stroke-miterlimit="10" pointer-events="visiblePainted" d="M 338898.3125 186528.6719 L 360846.3125 186528.6719 360846.3125 202272.6719 338898.3125 202272.6719 Z"></path></g><g><g direction="ltr" style="opacity: 1;"><g transform="matrix(381,0,0,381,342555.3125,191962.2719)"><g pointer-events="none"></g><rect style="opacity: 0;"></rect><rect style="opacity: 1;"></rect></g><g><path d="M 354633.39510917664 191962.2719 L 357189.3125 191962.2719 357189.3125 196839.07189999998 354633.39510917664 196839.07189999998 Z" pointer-events="visiblePainted" fill="#000000" stroke="#000000" opacity="0"></path></g><g transform="matrix(381,0,0,381,342555.3125,191962.2719)"></g></g></g></g></g><g id="editor-g29ca6216c02_0_185"><g><g></g><g><path fill="#666666" fill-opacity="1" d="M 66105 153663.05248 C 66105 152213.82831254034 67279.82831254032 151039 68729.05248 151039 L 197676.94752000002 151039 C 198372.88950790037 151039 199040.3275238406 151315.46187824584 199532.4328227974 151807.5671772026 200024.53812175416 152299.6724761594 200301 152967.11049209966 200301 153663.05248 L 200301 164158.94752 C 200301 165608.1716874597 199126.1716874597 166783 197676.94752000002 166783 L 68729.05248 166783 C 67279.82831254032 166783 66105 165608.1716874597 66105 164158.94752 Z"></path></g><g><g direction="ltr" style="opacity: 1;"><g transform="matrix(381,0,0,381,70530.5587308672,152243.5)"><g pointer-events="none"><g id="editor-g29ca6216c02_0_185-paragraph-0"><g><g class="sketchy-text-background" visibility="visible"></g><g><g></g></g><g class="sketchy-text-content" visibility="visible"><g class="sketchy-text-content-text" transform="translate(0 17.919999999999998)"><text style="font-family:docs-Inter;font-size:18.666666666666664px;fill:#FFFFFF;white-space:pre;" text-rendering="geometricPrecision" x="36.02593233759873">OS</text><text style="font-family:docs-Inter;font-size:18.666666666666664px;fill:#FFFFFF;white-space:pre;" text-rendering="geometricPrecision" x="67.39215471919053">LLM</text><text style="font-family:docs-Inter;font-size:18.666666666666664px;fill:#FFFFFF;white-space:pre;" text-rendering="geometricPrecision" x="110.23993303950303">Fine-tuning</text><text style="font-family:docs-Inter;font-size:18.666666666666664px;fill:#FFFFFF;white-space:pre;" text-rendering="geometricPrecision" x="216.54504015620225">datasets</text></g></g></g></g><g id="editor-g29ca6216c02_0_185-paragraph-1" transform="translate(0, 22)"><g><g class="sketchy-text-background" visibility="visible"></g><g></g><g class="sketchy-text-content" visibility="visible"><g class="sketchy-text-content-text" transform="translate(0 10.239999999999998)"><text style="font-family:docs-Inter;font-size:10.666666666666666px;fill:#FFFFFF;white-space:pre;" text-rendering="geometricPrecision" x="122.5617084759044">（</text><text style="font-family:docs-Inter;font-size:10.666666666666666px;fill:#FFFFFF;white-space:pre;" text-rendering="geometricPrecision" x="133.2283754604625">Unit</text><text style="font-family:docs-Inter;font-size:10.666666666666666px;fill:#FFFFFF;white-space:pre;" text-rendering="geometricPrecision" x="156.79015257533067">Minions</text><text style="font-family:docs-Inter;font-size:10.666666666666666px;fill:#FFFFFF;white-space:pre;" text-rendering="geometricPrecision" x="195.760817553358">）</text></g></g></g></g></g><rect style="opacity: 0;" x="292.9695952530861" y="0.07955096377287418" width="1.375796178343949" height="22.399999999999995" fill="#FFFFFF" transform="" shape-rendering="crispEdges" class=""></rect><rect style="opacity: 0;"></rect></g><g><path d="M 84256.43895149231 152243.5 L 182149.5610485077 152243.5 182149.5610485077 165502.3 84256.43895149231 165502.3 Z" pointer-events="visiblePainted" fill="#000000" stroke="#000000" opacity="0"></path></g><g transform="matrix(381,0,0,381,70530.5587308672,152243.5)"></g></g></g></g></g><g id="editor-g29ca6216c02_0_186"><g><g></g><g><path fill="#CC850A" fill-opacity="1" d="M 66105 125705.55248 C 66105 124256.32831254032 67279.82831254032 123081.5 68729.05248 123081.5 L 197676.94752000002 123081.5 C 198372.88950790037 123081.5 199040.3275238406 123357.96187824584 199532.4328227974 123850.06717720263 200024.53812175416 124342.17247615941 200301 125009.61049209964 200301 125705.55248 L 200301 136201.44752 C 200301 137650.6716874597 199126.1716874597 138825.5 197676.94752000002 138825.5 L 68729.05248 138825.5 C 67279.82831254032 138825.5 66105 137650.6716874597 66105 136201.44752 Z"></path></g><g><g direction="ltr" style="opacity: 1;"><g transform="matrix(381,0,0,381,70530.5587308672,124286)"><g pointer-events="none"><g id="editor-g29ca6216c02_0_186-paragraph-0"><g><g class="sketchy-text-background" visibility="visible"></g><g><g></g></g><g class="sketchy-text-content" visibility="visible"><g class="sketchy-text-content-text" transform="translate(0 17.919999999999998)"><text style="font-family:docs-Inter;font-size:18.666666666666664px;fill:#FFFFFF;white-space:pre;" text-rendering="geometricPrecision" x="114.77826311762803">Native</text><text style="font-family:docs-Inter;font-size:18.666666666666664px;fill:#FFFFFF;white-space:pre;" text-rendering="geometricPrecision" x="176.7189293163585">SDK</text></g></g></g></g><g id="editor-g29ca6216c02_0_186-paragraph-1" transform="translate(0, 22)"><g><g class="sketchy-text-background" visibility="visible"></g><g></g><g class="sketchy-text-content" visibility="visible"><g class="sketchy-text-content-text" transform="translate(0 10.239999999999998)"><text style="font-family:docs-Inter;font-size:10.666666666666666px;fill:#FFFFFF;white-space:pre;" text-rendering="geometricPrecision" x="129.54704001124375">（</text><text style="font-family:docs-Inter;font-size:10.666666666666666px;fill:#FFFFFF;white-space:pre;" text-rendering="geometricPrecision" x="140.21370699580186">EdgeInfer</text><text style="font-family:docs-Inter;font-size:10.666666666666666px;fill:#FFFFFF;white-space:pre;" text-rendering="geometricPrecision" x="188.77548601801865">）</text></g></g></g></g></g><rect style="opacity: 0;" x="171.21163346964664" y="-0.14627948576492145" width="1.375796178343949" height="22.399999999999995" fill="#FFFFFF" transform="" shape-rendering="crispEdges" class=""></rect><rect style="opacity: 0;"></rect></g><g><path d="M 114261.07697868347 124286 L 152144.92302131653 124286 152144.92302131653 137544.8 114261.07697868347 137544.8 Z" pointer-events="visiblePainted" fill="#000000" stroke="#000000" opacity="0"></path></g><g transform="matrix(381,0,0,381,70530.5587308672,124286)"></g></g></g></g></g><g id="editor-g29ca6216c02_0_187"><g><g><path fill="#6B9E78" fill-opacity="1" d="M 66105 102627.55248 C 66105 101178.32831254032 67279.82831254032 100003.5 68729.05248 100003.5 L 197676.94752000002 100003.5 C 198372.88950790037 100003.5 199040.3275238406 100279.96187824584 199532.4328227974 100772.06717720263 200024.53812175416 101264.17247615941 200301 101931.61049209964 200301 102627.55248 L 200301 113123.44752 C 200301 114572.67168745968 199126.1716874597 115747.5 197676.94752000002 115747.5 L 68729.05248 115747.5 C 67279.82831254032 115747.5 66105 114572.67168745968 66105 113123.44752 Z"></path></g><g><g direction="ltr" style="opacity: 1;"><g transform="matrix(381,0,0,381,70530.5587308672,101208)"><g pointer-events="none"><g id="editor-g29ca6216c02_0_187-paragraph-0"><g><g class="sketchy-text-background" visibility="visible"></g><g></g><g class="sketchy-text-content" visibility="visible"><g class="sketchy-text-content-text" transform="translate(0 17.919999999999998)"><text style="font-family:docs-Inter;font-size:18.666666666666664px;fill:#FFFFFF;white-space:pre;" text-rendering="geometricPrecision" x="124.32470705683701">LLM</text><text style="font-family:docs-Inter;font-size:18.666666666666664px;fill:#FFFFFF;white-space:pre;" text-rendering="geometricPrecision" x="167.1724853771495">SDK</text></g></g></g></g><g id="editor-g29ca6216c02_0_187-paragraph-1" transform="translate(0, 22)"><g><g class="sketchy-text-background" visibility="visible"></g><g></g><g class="sketchy-text-content" visibility="visible"><g class="sketchy-text-content-text" transform="translate(0 10.239999999999998)"><text style="font-family:docs-Inter;font-size:10.666666666666666px;fill:#FFFFFF;white-space:pre;" text-rendering="geometricPrecision" x="107.41904165919297">（</text><text style="font-family:docs-Inter;font-size:10.666666666666666px;fill:#FFFFFF;white-space:pre;" text-rendering="geometricPrecision" x="118.08570864375108">Chocolate</text><text style="font-family:docs-Inter;font-size:10.666666666666666px;fill:#FFFFFF;white-space:pre;" text-rendering="geometricPrecision" x="172.4039306896495">Factory</text><text style="font-family:docs-Inter;font-size:10.666666666666666px;fill:#FFFFFF;white-space:pre;" text-rendering="geometricPrecision" x="210.90348437006944">）</text></g></g></g></g></g><rect style="opacity: 0;"></rect><rect style="opacity: 1;"></rect></g><g><path d="M 111457.21360301971 101208 L 154948.7863969803 101208 154948.7863969803 114466.8 111457.21360301971 114466.8 Z" pointer-events="visiblePainted" fill="#000000" stroke="#000000" opacity="0"></path></g><g transform="matrix(381,0,0,381,70530.5587308672,101208)"></g></g></g></g></g><g id="editor-g29ca6216c02_0_188"><g><g><path stroke="#666666" stroke-opacity="1" stroke-width="762" stroke-linecap="butt" stroke-linejoin="round" stroke-miterlimit="8" stroke-dasharray="3048,2286" d="M 17560 144935 L 351004 144935"></path></g><g><path stroke="#000" stroke-opacity="0" stroke-width="4434.051724137931" stroke-linecap="round" stroke-linejoin="round" stroke-miterlimit="10" pointer-events="visiblePainted" d="M 17560 144935 L 351004 144935"></path></g></g></g><g id="editor-g29ca6216c02_0_189"><g><g></g><g><path fill="#FFFFFF" fill-opacity="1" d="M 210916 117271.35468 C 210916 116125.89320007952 211844.5800000795 115197.3132 212990.04147999999 115197.3132 L 270125.95852 115197.3132 C 270676.0285211072 115197.3132 271203.56908706 115415.82765711962 271592.52731497015 115804.78588502982 271981.4855428804 116193.74411294002 272200 116721.28467889279 272200 117271.35468 L 272200 125567.27172 C 272200 126712.73319992049 271271.4199999205 127641.3132 270125.95852 127641.3132 L 212990.04148 127641.3132 C 211844.5800000795 127641.3132 210916 126712.73319992049 210916 125567.27172 Z"></path></g><g><g direction="ltr" style="opacity: 1;"><g transform="matrix(381,0,0,381.00000000000006,215180.4660090772,116466.3132)"><g pointer-events="none"><g id="editor-g29ca6216c02_0_189-paragraph-0"><g><g class="sketchy-text-background" visibility="visible"></g><g><g></g></g><g class="sketchy-text-content" visibility="visible"><g class="sketchy-text-content-text" transform="translate(0 14.079999999999998)"><text style="font-family:docs-Inter;font-size:14.666666666666666px;fill:#000000;white-space:pre;" text-rendering="geometricPrecision" x="20.345926680441863">Code</text><text style="font-family:docs-Inter;font-size:14.666666666666666px;fill:#000000;white-space:pre;" text-rendering="geometricPrecision" x="61.53359452712155">Runtime</text></g></g></g></g><g id="editor-g29ca6216c02_0_189-paragraph-1" transform="translate(0, 18)"><g><g class="sketchy-text-background" visibility="visible"></g><g></g><g class="sketchy-text-content" visibility="visible"><g class="sketchy-text-content-text" transform="translate(0 6.3999999999999995)"><text style="font-family:docs-Inter;font-size:6.666666666666666px;fill:#000000;white-space:pre;" text-rendering="geometricPrecision" x="42.34237233626462">（</text><text style="font-family:docs-Inter;font-size:6.666666666666666px;fill:#000000;white-space:pre;" text-rendering="geometricPrecision" x="49.009038843985564">Unit</text><text style="font-family:docs-Inter;font-size:6.666666666666666px;fill:#000000;white-space:pre;" text-rendering="geometricPrecision" x="63.735150256033904">Runtime</text><text style="font-family:docs-Inter;font-size:6.666666666666666px;fill:#000000;white-space:pre;" text-rendering="geometricPrecision" x="89.45570651518918">）</text></g></g></g></g></g><rect style="opacity: 0;" x="118.30467653969413" y="-0.2591098249661741" width="1.375796178343949" height="17.599999999999998" fill="#000000" transform="" shape-rendering="crispEdges" class=""></rect><rect style="opacity: 0;"></rect></g><g><path d="M 222932.26407432556 116466.3132 L 260183.73592567444 116466.3132 260183.73592567444 126372.3132 222932.26407432556 126372.3132 Z" pointer-events="visiblePainted" fill="#000000" stroke="#000000" opacity="0"></path></g><g transform="matrix(381,0,0,381.00000000000006,215180.4660090772,116466.3132)"></g></g></g></g></g><g id="editor-g29ca6216c02_0_190"><g><g></g><g><path fill="#666666" fill-opacity="1" d="M 207007 153663.05248 C 207007 152213.82831254034 208181.82831254034 151039 209631.05248 151039 L 338578.94752000005 151039 C 339274.88950790034 151039 339942.3275238406 151315.46187824584 340434.4328227974 151807.5671772026 340926.5381217542 152299.6724761594 341203 152967.11049209966 341203 153663.05248 L 341203 164158.94752 C 341203 165608.1716874597 340028.1716874597 166783 338578.94752000005 166783 L 209631.05248 166783 C 208181.82831254034 166783 207007 165608.1716874597 207007 164158.94752 Z"></path></g><g><g direction="ltr" style="opacity: 1;"><g transform="matrix(381,0,0,381,211432.5587308672,152243.5)"><g pointer-events="none"><g id="editor-g29ca6216c02_0_190-paragraph-0"><g><g class="sketchy-text-background" visibility="visible"></g><g><g></g></g><g class="sketchy-text-content" visibility="visible"><g class="sketchy-text-content-text" transform="translate(0 17.919999999999998)"><text style="font-family:docs-Inter;font-size:18.666666666666664px;fill:#FFFFFF;white-space:pre;" text-rendering="geometricPrecision" x="83.21059992487898">Datasets</text><text style="font-family:docs-Inter;font-size:18.666666666666664px;fill:#FFFFFF;white-space:pre;" text-rendering="geometricPrecision" x="166.70815088923445">generate</text></g></g></g></g><g id="editor-g29ca6216c02_0_190-paragraph-1" transform="translate(0, 22)"><g><g class="sketchy-text-background" visibility="visible"></g><g></g><g class="sketchy-text-content" visibility="visible"><g class="sketchy-text-content-text" transform="translate(0 10.239999999999998)"><text style="font-family:docs-Inter;font-size:10.666666666666666px;fill:#FFFFFF;white-space:pre;" text-rendering="geometricPrecision" x="139.50170710261335">（</text><text style="font-family:docs-Inter;font-size:10.666666666666666px;fill:#FFFFFF;white-space:pre;" text-rendering="geometricPrecision" x="150.16837408717146">DevTi</text><text style="font-family:docs-Inter;font-size:10.666666666666666px;fill:#FFFFFF;white-space:pre;" text-rendering="geometricPrecision" x="178.820818926649">）</text></g></g></g></g></g><rect style="opacity: 0;" x="245.77227676503094" y="0.07955096377287418" width="1.375796178343949" height="22.399999999999995" fill="#FFFFFF" transform="" shape-rendering="crispEdges" class=""></rect><rect style="opacity: 0;"></rect></g><g><path d="M 243135.7973022461 152243.5 L 305074.2026977539 152243.5 305074.2026977539 165502.3 243135.7973022461 165502.3 Z" pointer-events="visiblePainted" fill="#000000" stroke="#000000" opacity="0"></path></g><g transform="matrix(381,0,0,381,211432.5587308672,152243.5)"></g></g></g></g></g><g id="editor-g29ca6216c02_0_191"><g><g></g><g><path fill="#6B9E78" fill-opacity="1" d="M 66105 75192.05248 C 66105 73742.82831254032 67279.82831254032 72568 68729.05248 72568 L 197676.94752000002 72568 C 198372.88950790037 72568 199040.3275238406 72844.46187824584 199532.4328227974 73336.56717720263 200024.53812175416 73828.67247615941 200301 74496.11049209964 200301 75192.05248 L 200301 85687.94752 C 200301 87137.17168745968 199126.1716874597 88312 197676.94752000002 88312 L 68729.05248 88312 C 67279.82831254032 88312 66105 87137.17168745968 66105 85687.94752 Z"></path></g><g><g direction="ltr" style="opacity: 1;"><g transform="matrix(381,0,0,381,70530.5587308672,73772.5)"><g pointer-events="none"><g id="editor-g29ca6216c02_0_191-paragraph-0"><g><g class="sketchy-text-background" visibility="visible"></g><g><g></g></g><g class="sketchy-text-content" visibility="visible"><g class="sketchy-text-content-text" transform="translate(0 17.919999999999998)"><text style="font-family:docs-Inter;font-size:18.666666666666664px;fill:#FFFFFF;white-space:pre;" text-rendering="geometricPrecision" x="64.06404116328233">Full</text><text style="font-family:docs-Inter;font-size:18.666666666666664px;fill:#FFFFFF;white-space:pre;" text-rendering="geometricPrecision" x="99.33159640009873">lifecycle</text><text style="font-family:docs-Inter;font-size:18.666666666666664px;fill:#FFFFFF;white-space:pre;" text-rendering="geometricPrecision" x="176.78582003291123">IDE</text><text style="font-family:docs-Inter;font-size:18.666666666666664px;fill:#FFFFFF;white-space:pre;" text-rendering="geometricPrecision" x="211.5462646740245">plugin</text></g></g></g></g><g id="editor-g29ca6216c02_0_191-paragraph-1" transform="translate(0, 22)"><g><g class="sketchy-text-background" visibility="visible"></g><g></g><g class="sketchy-text-content" visibility="visible"><g class="sketchy-text-content-text" transform="translate(0 10.239999999999998)"><text style="font-family:docs-Inter;font-size:10.666666666666666px;fill:#FFFFFF;white-space:pre;" text-rendering="geometricPrecision" x="132.21415236170762">（</text><text style="font-family:docs-Inter;font-size:10.666666666666666px;fill:#FFFFFF;white-space:pre;" text-rendering="geometricPrecision" x="142.88081934626572">AutoDev</text><text style="font-family:docs-Inter;font-size:10.666666666666666px;fill:#FFFFFF;white-space:pre;" text-rendering="geometricPrecision" x="186.1083736675548">）</text></g></g></g></g></g><rect style="opacity: 0;" x="103.79762073079314" y="-0.3292458665596314" width="1.375796178343949" height="22.399999999999995" fill="#FFFFFF" transform="" shape-rendering="crispEdges" class=""></rect><rect style="opacity: 0;"></rect></g><g><path d="M 94938.95841407776 73772.5 L 171467.04158592224 73772.5 171467.04158592224 87031.3 94938.95841407776 87031.3 Z" pointer-events="visiblePainted" fill="#000000" stroke="#000000" opacity="0"></path></g><g transform="matrix(381,0,0,381,70530.5587308672,73772.5)"></g></g></g></g></g><g id="editor-g29ca6216c02_0_192"><g><g></g><g><path fill="#CC850A" fill-opacity="1" d="M 207007 74404.05248 C 207007 72954.82831254032 208181.82831254034 71780 209631.05248 71780 L 338578.94752000005 71780 C 339274.88950790034 71780 339942.3275238406 72056.46187824584 340434.4328227974 72548.56717720263 340926.5381217542 73040.67247615941 341203 73708.11049209964 341203 74404.05248 L 341203 84899.94752 C 341203 86349.17168745968 340028.1716874597 87524 338578.94752000005 87524 L 209631.05248 87524 C 208181.82831254034 87524 207007 86349.17168745968 207007 84899.94752 Z"></path></g><g><g direction="ltr" style="opacity: 1;"><g transform="matrix(381,0,0,381,211432.5587308672,72984.5)"><g pointer-events="none"><g id="editor-g29ca6216c02_0_192-paragraph-0"><g><g class="sketchy-text-background" visibility="visible"></g><g><g></g></g><g class="sketchy-text-content" visibility="visible"><g class="sketchy-text-content-text" transform="translate(0 17.919999999999998)"><text style="font-family:docs-Inter;font-size:18.666666666666664px;fill:#FFFFFF;white-space:pre;" text-rendering="geometricPrecision" x="95.58037760432234">DevOps</text><text style="font-family:docs-Inter;font-size:18.666666666666664px;fill:#FFFFFF;white-space:pre;" text-rendering="geometricPrecision" x="170.53948404963484">Copilot</text></g></g></g></g><g id="editor-g29ca6216c02_0_192-paragraph-1" transform="translate(0, 22)"><g><g class="sketchy-text-background" visibility="visible"></g><g></g><g class="sketchy-text-content" visibility="visible"><g class="sketchy-text-content-text" transform="translate(0 10.239999999999998)"><text style="font-family:docs-Inter;font-size:10.666666666666666px;fill:#FFFFFF;white-space:pre;" text-rendering="geometricPrecision" x="116.56926253016462">（</text><text style="font-family:docs-Inter;font-size:10.666666666666666px;fill:#FFFFFF;white-space:pre;" text-rendering="geometricPrecision" x="127.23592951472273">DevOpsGenius</text><text style="font-family:docs-Inter;font-size:10.666666666666666px;fill:#FFFFFF;white-space:pre;" text-rendering="geometricPrecision" x="201.75326349909773">）</text></g></g></g></g></g><rect style="opacity: 0;" x="233.39011115993537" y="-0.3246986642593015" width="1.375796178343949" height="22.399999999999995" fill="#FFFFFF" transform="" shape-rendering="crispEdges" class=""></rect><rect style="opacity: 0;"></rect></g><g><path d="M 247848.682598114 72984.5 L 300361.317401886 72984.5 300361.317401886 86243.3 247848.682598114 86243.3 Z" pointer-events="visiblePainted" fill="#000000" stroke="#000000" opacity="0"></path></g><g transform="matrix(381,0,0,381,211432.5587308672,72984.5)"></g></g></g></g></g><g id="editor-g29ca6216c02_0_193"><g><g><path fill="#FFFFFF" fill-opacity="1" d="M 276009.7389 117271.35468 C 276009.7389 116125.89320007952 276938.3189000795 115197.3132 278083.78038 115197.3132 L 335219.69742 115197.3132 C 335769.7674211072 115197.3132 336297.30798706 115415.82765711962 336686.26621497015 115804.78588502982 337075.22444288037 116193.74411294002 337293.7389 116721.28467889279 337293.7389 117271.35468 L 337293.7389 125567.27172 C 337293.7389 126712.73319992049 336365.15889992047 127641.3132 335219.69742 127641.3132 L 278083.78038 127641.3132 C 276938.3189000795 127641.3132 276009.7389 126712.73319992049 276009.7389 125567.27172 Z"></path></g><g><g direction="ltr" style="opacity: 1;"><g transform="matrix(381,0,0,381.00000000000006,280274.2049090772,116466.3132)"><g pointer-events="none"><g id="editor-g29ca6216c02_0_193-paragraph-0"><g><g class="sketchy-text-background" visibility="visible"></g><g></g><g class="sketchy-text-content" visibility="visible"><g class="sketchy-text-content-text" transform="translate(0 14.079999999999998)"><text style="font-family:docs-Inter;font-size:14.666666666666666px;fill:#000000;white-space:pre;" text-rendering="geometricPrecision" x="36.711481490012176">Team</text><text style="font-family:docs-Inter;font-size:14.666666666666666px;fill:#000000;white-space:pre;" text-rendering="geometricPrecision" x="78.64959565627194">API</text></g></g></g></g><g id="editor-g29ca6216c02_0_193-paragraph-1" transform="translate(0, 18)"><g><g class="sketchy-text-background" visibility="visible"></g><g></g><g class="sketchy-text-content" visibility="visible"><g class="sketchy-text-content-text" transform="translate(0 6.3999999999999995)"><text style="font-family:docs-Inter;font-size:6.666666666666666px;fill:#000000;white-space:pre;" text-rendering="geometricPrecision" x="51.72737304198361">（</text><text style="font-family:docs-Inter;font-size:6.666666666666666px;fill:#000000;white-space:pre;" text-rendering="geometricPrecision" x="58.39403954970456">CoUnit</text><text style="font-family:docs-Inter;font-size:6.666666666666666px;fill:#000000;white-space:pre;" text-rendering="geometricPrecision" x="80.07070580947018">）</text></g></g></g></g></g><rect style="opacity: 0;"></rect><rect style="opacity: 1;"></rect></g><g><path d="M 294261.27935677185 116466.3132 L 319042.19844322815 116466.3132 319042.19844322815 126372.3132 294261.27935677185 126372.3132 Z" pointer-events="visiblePainted" fill="#000000" stroke="#000000" opacity="0"></path></g><g transform="matrix(381,0,0,381.00000000000006,280274.2049090772,116466.3132)"></g></g></g></g></g><g id="editor-g29ca6216c02_0_194"><g><g><path stroke="#666666" stroke-opacity="1" stroke-width="762" stroke-linecap="butt" stroke-linejoin="round" stroke-miterlimit="8" stroke-dasharray="3048,2286" d="M 18677 91799 L 352121 91799"></path></g><g><path stroke="#000" stroke-opacity="0" stroke-width="4434.051724137931" stroke-linecap="round" stroke-linejoin="round" stroke-miterlimit="10" pointer-events="visiblePainted" d="M 18677 91799 L 352121 91799"></path></g></g></g><g id="editor-g29ca6216c02_0_195"><g><g></g><g><path d="M 17560 151750 L 59404 151750 59404 165382 17560 165382 Z"></path></g><g><path fill="#000" fill-opacity="0" stroke="#000" stroke-opacity="0" stroke-width="4434.051724137931" stroke-linecap="round" stroke-linejoin="round" stroke-miterlimit="10" pointer-events="visiblePainted" d="M 17560 151750 L 59404 151750 59404 165382 17560 165382 Z"></path></g><g><g direction="ltr" style="opacity: 1;"><g transform="matrix(381,0,0,381,21217,154908.4)"><g pointer-events="none"><g id="editor-g29ca6216c02_0_195-paragraph-0"><g><g class="sketchy-text-background" visibility="visible"></g><g><g></g></g><g class="sketchy-text-content" visibility="visible"><g class="sketchy-text-content-text" transform="translate(0 15.36)"><text style="font-family:docs-Inter;font-size:16px;fill:#000000;white-space:pre;" text-rendering="geometricPrecision" x="22.064293057899775">model</text></g></g></g></g></g><rect style="opacity: 0;" x="57.12762258220903" y="0.1882474881722942" width="1.375796178343949" height="22.399999999999995" fill="#000000" transform="" shape-rendering="crispEdges" class=""></rect><rect style="opacity: 0;"></rect></g><g><path d="M 29623.495655059814 154908.4 L 47340.504344940186 154908.4 47340.504344940186 162223.6 29623.495655059814 162223.6 Z" pointer-events="visiblePainted" fill="#000000" stroke="#000000" opacity="0"></path></g><g transform="matrix(381,0,0,381,21217,154908.4)"></g></g></g></g></g><g id="editor-g29ca6216c02_0_196"><g><g></g><g><path d="M 17560 113215 L 59404 113215 59404 126847 17560 126847 Z"></path></g><g><path fill="#000" fill-opacity="0" stroke="#000" stroke-opacity="0" stroke-width="4434.051724137931" stroke-linecap="round" stroke-linejoin="round" stroke-miterlimit="10" pointer-events="visiblePainted" d="M 17560 113215 L 59404 113215 59404 126847 17560 126847 Z"></path></g><g><g direction="ltr" style="opacity: 1;"><g transform="matrix(381,0,0,381,21217,113935)"><g pointer-events="none"><g id="editor-g29ca6216c02_0_196-paragraph-0"><g><g class="sketchy-text-background" visibility="visible"></g><g><g></g></g><g class="sketchy-text-content" visibility="visible"><g class="sketchy-text-content-text" transform="translate(0 12.799999999999999)"><text style="font-family:docs-Inter;font-size:13.333333333333332px;fill:#000000;white-space:pre;" text-rendering="geometricPrecision" x="32.6816274237445">App</text></g></g></g><g transform="translate(0 15.999999999999998)"><g class="sketchy-text-background" visibility="visible"></g><g><g></g></g><g class="sketchy-text-content" visibility="visible"><g class="sketchy-text-content-text" transform="translate(0 12.799999999999999)"><text style="font-family:docs-Inter;font-size:13.333333333333332px;fill:#000000;white-space:pre;" text-rendering="geometricPrecision" x="2.652183682899775">infrastructure</text></g></g></g></g></g><rect style="opacity: 0;" x="53.00023404717723" y="38.44590333851585" width="1.375796178343949" height="19.2" fill="#000000" transform="" shape-rendering="crispEdges" class=""></rect><rect style="opacity: 0;"></rect></g><g><path d="M 22227.481983184814 113935 L 54736.518016815186 113935 54736.518016815186 126127 22227.481983184814 126127 Z" pointer-events="visiblePainted" fill="#000000" stroke="#000000" opacity="0"></path></g><g transform="matrix(381,0,0,381,21217,113935)"></g></g></g></g></g><g id="editor-g29ca6216c02_0_197"><g><g></g><g><path d="M 17560 74680 L 59404 74680 59404 88312 17560 88312 Z"></path></g><g><path fill="#000" fill-opacity="0" stroke="#000" stroke-opacity="0" stroke-width="4434.051724137931" stroke-linecap="round" stroke-linejoin="round" stroke-miterlimit="10" pointer-events="visiblePainted" d="M 17560 74680 L 59404 74680 59404 88312 17560 88312 Z"></path></g><g><g direction="ltr" style="opacity: 1;"><g transform="matrix(381,0,0,381,21217,77838.4)"><g pointer-events="none"><g id="editor-g29ca6216c02_0_197-paragraph-0"><g><g class="sketchy-text-background" visibility="visible"></g><g><g></g></g><g class="sketchy-text-content" visibility="visible"><g class="sketchy-text-content-text" transform="translate(0 15.36)"><text style="font-family:docs-Inter;font-size:16px;fill:#000000;white-space:pre;" text-rendering="geometricPrecision" x="3.119629056434931">Application</text></g></g></g></g></g><rect style="opacity: 0;" x="64.6945015631008" y="0.00547001688482851" width="1.375796178343949" height="19.2" fill="#000000" transform="" shape-rendering="crispEdges" class=""></rect><rect style="opacity: 0;"></rect></g><g><path d="M 22405.57867050171 77838.4 L 54558.42132949829 77838.4 54558.42132949829 85153.59999999999 22405.57867050171 85153.59999999999 Z" pointer-events="visiblePainted" fill="#000000" stroke="#000000" opacity="0"></path></g><g transform="matrix(381,0,0,381,21217,77838.4)"></g></g></g></g></g></g></g></svg>